<?xml version="1.0" encoding="UTF-8" standalone="no"?>
<svg
   xmlns:dc="http://purl.org/dc/elements/1.1/"
   xmlns:cc="http://creativecommons.org/ns#"
   xmlns:rdf="http://www.w3.org/1999/02/22-rdf-syntax-ns#"
   xmlns:svg="http://www.w3.org/2000/svg"
   xmlns="http://www.w3.org/2000/svg"
   xmlns:sodipodi="http://sodipodi.sourceforge.net/DTD/sodipodi-0.dtd"
   xmlns:inkscape="http://www.inkscape.org/namespaces/inkscape"
   width="640"
   height="480"
   id="svg3091"
   version="1.1"
   inkscape:version="0.48.4 r9939"
   sodipodi:docname="running-311805.svg">
  <metadata
     id="metadata3103">
    <rdf:RDF>
      <cc:Work
         rdf:about="">
        <dc:format>image/svg+xml</dc:format>
        <dc:type
           rdf:resource="http://purl.org/dc/dcmitype/StillImage" />
        <dc:title></dc:title>
      </cc:Work>
    </rdf:RDF>
  </metadata>
  <defs
     id="defs3101" />
  <sodipodi:namedview
     pagecolor="#ffffff"
     bordercolor="#666666"
     borderopacity="1"
     objecttolerance="10"
     gridtolerance="10"
     guidetolerance="10"
     inkscape:pageopacity="0"
     inkscape:pageshadow="2"
     inkscape:window-width="1366"
     inkscape:window-height="716"
     id="namedview3099"
     showgrid="false"
     inkscape:zoom="0.40069384"
     inkscape:cx="358.56498"
     inkscape:cy="82.537563"
     inkscape:window-x="0"
     inkscape:window-y="30"
     inkscape:window-maximized="1"
     inkscape:current-layer="svg3091" />
  <path
     id="svg_3"
     d="m 148.61703,438.18557 c 0.98446,-2.43143 2.19533,-4.80577 3.92343,-6.90018 23.2552,-28.67331 47.24963,-56.86963 70.53415,-85.52164 7.79263,-9.88839 16.15695,-19.40825 24.51879,-28.92006 3.51285,-3.60065 6.82955,-7.44725 11.09437,-10.38489 6.37625,-4.28573 16.42247,-2.36919 20.35056,3.74733 4.62056,8.39245 1.49879,18.39751 -5.25649,25.16905 -17.55713,17.50063 -36.94864,33.42037 -56.28856,49.33175 -18.44471,15.54906 -37.18799,30.8133 -56.36577,45.63948 -4.06067,2.73407 -7.68131,6.18964 -12.50977,7.8379 z"
     inkscape:connector-curvature="0" />
  <path
     id="svg_5"
     d="m 260.84882,306.15252 c 1.22191,-5.89471 7.48594,-10.15876 13.4428,-13.53566 26.48816,1.63668 47.22892,15.11332 66.16598,27.75892 8.85697,6.30246 19.06377,13.29669 19.85652,23.5016 -0.77767,4.89142 -3.67907,9.5169 -6.73479,13.87761 -14.51485,19.20686 -36.181,34.45602 -58.22158,48.41159 -9.65322,5.87498 -18.75173,12.35507 -28.79276,17.80964 l -2.30042,0.28131 c 5.2067,-7.63125 12.69632,-14.17511 18.41588,-21.56957 14.44073,-18.62549 28.33736,-37.50726 44.33176,-55.41156 -9.67124,-3.59113 -20.3371,-5.53234 -29.73114,-9.56042 -10.98447,-4.58034 -21.63255,-10.02236 -29.67963,-17.46527 -4.20705,-3.8102 -7.32354,-8.79994 -6.75212,-14.09708 z"
     inkscape:connector-curvature="0" />
  <path
     id="svg_10"
     d="m 448.78367,225.60693 c -6.59495,2.8479 -9.65257,8.34075 -11.75656,13.32654 10.37341,16.32969 32.94446,24.83898 53.95619,32.4884 10.2893,3.44133 21.82624,7.50072 34.16785,4.42828 5.54771,-2.21135 10.10486,-5.68597 14.29698,-9.16584 18.13428,-15.99891 29.30303,-35.17346 38.81819,-54.13238 3.88611,-8.22181 8.66598,-16.30106 11.93198,-24.62179 l -0.39929,-1.56659 c -7.38374,6.00009 -12.75093,13.07436 -19.69247,19.31693 -17.46876,15.7483 -35.41514,31.23942 -51.53533,47.72677 -7.3338,-4.91284 -13.0292,-11.03893 -20.79457,-15.62192 -8.92436,-5.40306 -18.76232,-10.28844 -30.14327,-12.81267 -5.85265,-1.35 -12.7565,-1.58774 -18.85122,0.63487 z"
     inkscape:connector-curvature="0" />
  <path
     id="svg_12"
     d="m 220.81086,225.42338 c 4.96995,-3.23644 6.76427,-8.28997 7.85093,-12.79446 -10.36215,-12.62617 -29.60374,-17.09195 -47.48381,-21.0176 -8.71655,-1.66345 -18.517,-3.70054 -28.09393,0.43612 -4.20303,2.56643 -7.45257,6.08525 -10.40849,9.5642 -12.66717,15.85607 -19.32771,33.55715 -24.68296,50.87238 -2.12904,7.47809 -4.9961,14.9463 -6.61166,22.43228 l 0.51345,1.28493 c 5.2202,-6.01722 8.68391,-12.70223 13.51699,-18.87293 12.1613,-15.55951 24.7385,-30.95893 35.72172,-46.98115 6.51511,3.27952 11.85841,7.79355 18.67838,10.73889 7.85749,3.5017 16.38829,6.45041 25.87417,7.19949 4.88548,0.42724 10.48192,-0.21963 15.12521,-2.86271 z"
     inkscape:connector-curvature="0"
     inkscape:transform-center-y="-43.293189" />
  <ellipse
     id="svg_6"
     rx="4"
     ry="2"
     cy="66.599998"
     cx="163.8"
     sodipodi:cx="163.8"
     sodipodi:cy="66.599998"
     sodipodi:rx="4"
     sodipodi:ry="2"
     transform="translate(21.176471,10.588235)"
     style="fill:#ffffff" />
  <path
     id="svg_7-3"
     d="m 328.62976,101.63872 c 31.49096,-2.927754 64.77368,9.9952 84.54068,34.97721 13.89908,15.65953 20.04507,36.50088 22.28876,56.91791 -1.24144,23.67905 -9.70034,47.64668 -26.61777,64.76705 -25.71525,28.29622 -69.73532,37.93911 -105.13499,23.57517 -48.43092,-16.51969 -76.94001,-78.20065 -52.7533,-124.52449 13.38962,-31.05034 44.44922,-51.76058 77.67662,-55.71056 z"
     inkscape:connector-curvature="0"
     style="fill:#ffff00" />
  <path
     style="fill:#000000"
     d="M 249.96302,119.14005 C 267.201,96.961476 292.0048,81.467489 320.23426,77.022506 L 307.35831,60.241427 c -6.69716,-7.246321 -21.17735,-4.144592 -39.38907,6.855552 -18.21171,10.997701 -28.01695,22.55956 -25.36891,32.248177 l 7.36269,19.794894 z"
     id="svg_1"
     inkscape:connector-curvature="0" />
  <path
     style="fill:#000000"
     d="m 392.51262,142.91118 c -2.90416,-2.63189 -7.37006,-2.3031 -9.97514,0.73435 l -40.87987,47.66519 -45.57362,-41.30077 c -2.90419,-2.63187 -7.37007,-2.30312 -9.97515,0.73435 -2.60507,3.03746 -2.3626,7.63314 0.54156,10.26504 l 50.83196,46.06607 c 2.90418,2.6319 7.37007,2.30314 9.97515,-0.73432 l 45.59669,-53.16488 c 2.60506,-3.03746 2.36259,-7.63314 -0.54158,-10.26503 z"
     id="svg_2"
     inkscape:connector-curvature="0" />
  <path
     style="fill:#000000"
     d="M 424.04968,119.14005 C 406.81172,96.961476 382.00791,81.467489 353.77846,77.022506 l 12.87593,-16.781079 c 6.69718,-7.246321 21.17736,-4.144592 39.38908,6.855552 18.2117,10.997701 28.01693,22.55956 25.3689,32.248177 l -7.36269,19.794894 z"
     id="svg_3-2"
     inkscape:connector-curvature="0" />
  <path
     style="fill:#000000"
     d="m 337.00518,85.482633 c -56.69241,0 -102.81599,48.240427 -102.81599,107.534717 0,59.29915 46.12358,107.53713 102.81599,107.53713 56.69243,0 102.81601,-48.24042 102.81601,-107.53713 10e-4,-59.29429 -46.12125,-107.534717 -102.81601,-107.534717 z m 0,200.408237 c -48.96311,0 -88.79586,-41.6633 -88.79586,-92.8711 0,-51.2078 39.83275,-92.87353 88.79586,-92.87353 48.96313,0 88.79586,41.66331 88.79586,92.87111 0,51.20778 -39.83273,92.87352 -88.79586,92.87352 z"
     id="svg_4"
     inkscape:connector-curvature="0" />
  <rect
     style="fill:#000000"
     id="rect3554-5"
     width="82.103424"
     height="7.6956787"
     x="175.58495"
     y="247.31503"
     transform="matrix(0.96038963,0.27866066,-0.20538433,0.9786814,0,0)" />
  <rect
     style="fill:#000000"
     id="rect3554-58"
     width="85.14843"
     height="8.1656513"
     x="148.64365"
     y="286.63919"
     transform="matrix(0.95428685,0.29889231,-0.18880045,0.98201547,0,0)" />
  <rect
     style="fill:#000000"
     id="rect3554-5-7"
     width="82.103424"
     height="7.6956787"
     x="119.90887"
     y="344.27325"
     transform="matrix(0.97346114,0.22885238,-0.15473159,0.98795655,0,0)" />
  <rect
     style="fill:#000000"
     id="rect3554-58-6"
     width="102.13309"
     height="10.577119"
     x="165.70346"
     y="202.3436"
     transform="matrix(0.95197429,0.30617798,-0.06745844,0.99772209,0,0)" />
</svg>
